<svg width="17" height="19" viewBox="0 0 17 19" fill="none" xmlns="http://www.w3.org/2000/svg">
<path d="M16 12.9007V6.0993C15.9997 5.80112 15.9225 5.50827 15.7763 5.25012C15.63 4.99196 15.4198 4.77759 15.1667 4.6285L9.33333 1.2278C9.07997 1.07857 8.79256 1 8.5 1C8.20744 1 7.92003 1.07857 7.66667 1.2278L1.83333 4.6285C1.58022 4.77759 1.36998 4.99196 1.22372 5.25012C1.07745 5.50827 1.0003 5.80112 1 6.0993V12.9007C1.0003 13.1989 1.07745 13.4917 1.22372 13.7499C1.36998 14.008 1.58022 14.2224 1.83333 14.3715L7.66667 17.7722C7.92003 17.9214 8.20744 18 8.5 18C8.79256 18 9.07997 17.9214 9.33333 17.7722L15.1667 14.3715C15.4198 14.2224 15.63 14.008 15.7763 13.7499C15.9225 13.4917 15.9997 13.1989 16 12.9007Z" stroke="white" stroke-width="2" stroke-linecap="round" stroke-linejoin="round"/>
<path d="M1 5L8.5 9L16 5" stroke="white" stroke-width="2" stroke-linecap="round" stroke-linejoin="round"/>
<path d="M9 18V9" stroke="white" stroke-width="2" stroke-linecap="round" stroke-linejoin="round"/>
</svg>
