<svg width="19" height="17" viewBox="0 0 19 17" fill="none" xmlns="http://www.w3.org/2000/svg">
<path d="M16 8.5V4.75H2.875C2.37772 4.75 1.90081 4.55246 1.54917 4.20083C1.19754 3.84919 1 3.37228 1 2.875C1 1.84375 1.84375 1 2.875 1H14.125V4.75" stroke="white" stroke-width="2" stroke-linecap="round" stroke-linejoin="round"/>
<path d="M1 2.875V14.125C1 15.1563 1.84375 16 2.875 16H16V12.25" stroke="white" stroke-width="2" stroke-linecap="round" stroke-linejoin="round"/>
<path d="M14.125 8.5C13.6277 8.5 13.1508 8.69754 12.7992 9.04918C12.4475 9.40081 12.25 9.87772 12.25 10.375C12.25 11.4063 13.0937 12.25 14.125 12.25H17.875V8.5H14.125Z" stroke="white" stroke-width="2" stroke-linecap="round" stroke-linejoin="round"/>
</svg>
