<svg width="16" height="17" viewBox="0 0 16 17" fill="none" xmlns="http://www.w3.org/2000/svg">
<path d="M1 1V4.88984H4.88984" stroke="white" stroke-width="2" stroke-linecap="round" stroke-linejoin="round"/>
<path d="M1.0389 8.78032C1.21122 10.3408 1.90299 11.798 3.0031 12.9181C4.10321 14.0381 5.54782 14.7559 7.10493 14.9563C8.66205 15.1566 10.2413 14.8278 11.5891 14.0226C12.9368 13.2175 13.9749 11.9827 14.5366 10.5167C15.0982 9.05067 15.1509 7.43841 14.6861 5.93884C14.2213 4.43928 13.266 3.13944 11.9737 2.24807C10.6813 1.3567 9.12686 0.925531 7.55999 1.02381C5.99313 1.12209 4.50475 1.74411 3.3339 2.78997L1 4.89048" stroke="white" stroke-width="2" stroke-linecap="round" stroke-linejoin="round"/>
<path d="M8.00171 4.11186V8.0017L11.1136 9.55763" stroke="white" stroke-width="2" stroke-linecap="round" stroke-linejoin="round"/>
</svg>
